<svg width="81" height="80" viewBox="0 0 81 80" fill="none" xmlns="http://www.w3.org/2000/svg">
<path d="M68.6573 80H13.243C6.48519 80 0.950195 74.5294 0.950195 67.7072V12.2928C0.950195 5.535 6.48519 0 13.243 0H68.6573C75.4795 0 80.9502 5.535 80.9502 12.2928V67.7072C80.9502 74.5294 75.4795 80 68.6573 80Z" fill="#151545"/>
<path d="M35.2542 16.7344C24.9565 16.7344 16.5897 24.9725 16.3966 35.1414H16.3322L15.1094 61.7867C15.1094 63.2026 15.4312 63.5244 16.1391 63.6531C16.7827 63.7818 17.8125 63.7818 19.1641 61.7867C22.3821 56.2517 23.6693 54.4496 25.2783 51.6821C28.1745 53.4198 31.5856 54.5139 35.2542 54.5139C45.6806 54.5139 54.1118 46.0827 54.1118 35.592C54.1118 25.1656 45.6806 16.7344 35.2542 16.7344Z" fill="url(#paint0_linear_69_12)"/>
<path d="M48.4475 16.7344C38.2142 16.7344 29.8474 24.9725 29.5899 35.1414L28.3027 61.7867C28.3671 63.2026 28.6889 63.5244 29.3325 63.6531C29.9761 63.7818 31.0059 63.7818 32.3574 61.7867C35.5755 56.2517 36.8627 54.4496 38.536 51.6821C41.3679 53.4198 44.779 54.5139 48.4475 54.5139C58.8739 54.5139 67.3695 46.0827 67.3695 35.592C67.3695 25.1656 58.8739 16.7344 48.4475 16.7344Z" fill="url(#paint1_linear_69_12)"/>
<defs>
<linearGradient id="paint0_linear_69_12" x1="15.101" y1="16.7389" x2="54.1169" y2="16.7389" gradientUnits="userSpaceOnUse">
<stop stop-color="#42BBCD"/>
<stop offset="1" stop-color="#1D61AC"/>
</linearGradient>
<linearGradient id="paint1_linear_69_12" x1="28.3265" y1="16.7389" x2="67.3425" y2="16.7389" gradientUnits="userSpaceOnUse">
<stop stop-color="#2D4399" stop-opacity="0.1"/>
<stop offset="0.915" stop-color="#42BBCD"/>
</linearGradient>
</defs>
</svg>
