<svg width="89" height="54" viewBox="0 0 89 54" fill="none" xmlns="http://www.w3.org/2000/svg">
<path fill-rule="evenodd" clip-rule="evenodd" d="M88.9441 27.0125C88.9441 41.9279 76.8471 54 61.9566 54C55.8208 54 50.1838 51.9797 45.6693 48.5376L65.7478 27.5612C66.521 26.763 66.4712 25.491 65.673 24.7178C64.8749 23.9695 63.6028 23.9945 62.8296 24.7926L52.6531 35.443L42.6513 45.8938L36.5654 52.279C33.5723 53.4014 30.3548 54 26.9876 54C12.0721 54 0 41.9279 0 27.0125C0 12.097 12.0721 0 26.9876 0C33.3229 0 39.1344 2.19492 43.7487 5.86143L23.6453 26.4637C22.8721 27.2619 22.8721 28.5339 23.6702 29.3072C24.0693 29.6813 24.5681 29.8808 25.067 29.8808C25.5908 29.8808 26.1146 29.6813 26.5136 29.2822L35.9917 19.5547L46.7169 8.58014L52.7529 2.39446C52.7778 2.36951 52.7778 2.36952 52.7778 2.36952L52.9525 2.16998L53.7506 1.297C56.3196 0.448961 59.0633 0 61.9566 0C76.8471 0 88.9441 12.097 88.9441 27.0125ZM57.3922 13.9926C56.5691 13.1945 55.297 13.2443 54.5488 14.0425L51.9548 16.7363L35.7922 33.6721L31.976 37.6379C31.2028 38.436 31.2527 39.7081 32.0508 40.4813C32.425 40.8554 32.9487 41.055 33.4476 41.055C33.9714 41.055 34.4952 40.8305 34.8942 40.4065L37.2638 37.9372L53.3266 21.151L57.4421 16.836C58.2153 16.0379 58.1903 14.7409 57.3922 13.9926Z" fill="url(#paint0_linear_69_28)"/>
<defs>
<linearGradient id="paint0_linear_69_28" x1="-21.1505" y1="32.8679" x2="74.9162" y2="-31.248" gradientUnits="userSpaceOnUse">
<stop stop-color="#42BBCD"/>
<stop offset="1" stop-color="#1D61AC"/>
</linearGradient>
</defs>
</svg>
